<svg id="Layer_1" data-name="Layer 1" xmlns="http://www.w3.org/2000/svg" viewBox="0 0 100 50"><defs><style>.cls-1{fill:#fff;fill-rule:evenodd;}</style></defs><title>R1game-logo</title><path class="cls-1" d="M33.32,32.52,30,32.5V31h8.27c.62,5-3.61,8.83-8.46,8.83a8.51,8.51,0,1,1,8.38-10H33.31A3.77,3.77,0,0,0,26,31.14a3.88,3.88,0,0,0,3.77,3.77A3.54,3.54,0,0,0,33.32,32.52Z"/><path class="cls-1" d="M54.48,32.36V38.8H49.84v-.69a7.17,7.17,0,0,1-3.28.77V34.5a2.83,2.83,0,0,0,0-5.66V24.22C50.46,24.1,54.48,26.78,54.48,32.36Zm-7.92,6.52a7.13,7.13,0,0,1-7.24-7.24,7.29,7.29,0,0,1,7.24-7.42v4.62h0a2.83,2.83,0,0,0,0,5.66h0Z"/><path class="cls-1" d="M95,30.12h-5v1.5h9.87c.62-5-3.61-8.82-8.46-8.82a8.51,8.51,0,1,0,8.38,10H95a3.77,3.77,0,0,1-7.31-1.29,3.89,3.89,0,0,1,3.77-3.77A3.54,3.54,0,0,1,95,30.12Z"/><path class="cls-1" d="M68.85,26.52a6.39,6.39,0,0,0-1.24-1,7.92,7.92,0,0,0-8.31-.17c-2.32,1.36-3.24,3.77-3.38,6.94L56,38.82h4.15l0-6.62c.74-5.14,6.44-4.62,6.69.38l0,6.24H71.1L71,32.54c.24-4.53,5.9-5.86,6.73-.15l0,6.45,4.18,0-.08-6.63c-.15-3.17-1.07-5.58-3.39-6.94a7.86,7.86,0,0,0-8.3.17A6.31,6.31,0,0,0,68.85,26.52Z"/><path class="cls-1" d="M10.84,26l0,2.93h4L15,31.6c1.52,2.68,3,5.36,4.56,8L19.37,21H16.1C15.75,23.43,13.08,25.9,10.84,26Z"/><path class="cls-1" d="M10.38,29.39V25.58a6.06,6.06,0,0,0,5.3-5h3.76C19.44,6,.05,6.92.05,20.29q0,9.8,0,19.59l4.93,0L5,28.13c1.89,2.81,5.7,8.39,8,11.72h6.09l-6-10.47ZM4.66,19.65A5.16,5.16,0,1,1,9.81,24.8,5.16,5.16,0,0,1,4.66,19.65Z"/><path class="cls-1" d="M9.87,15.22l.4.69.4.7H9.07l.4-.7Z"/><path class="cls-1" d="M14.3,19.63l-.69-.39-.69-.4v1.59l.69-.4Z"/><path class="cls-1" d="M5.4,19.63l.69-.39.69-.4v1.59L6.09,20Z"/><path class="cls-1" d="M9.87,24.06l.4-.69.4-.69H9.07l.4.69Z"/><path class="cls-1" d="M9.81,21.71a2,2,0,1,0-2-2A2,2,0,0,0,9.81,21.71Z"/></svg>