<svg id="Layer_1" data-name="Layer 1" xmlns="http://www.w3.org/2000/svg" viewBox="0 0 306 306"><defs><style>.cls-1{fill:#0db394;}.cls-2{fill:#fff;stroke:#0db394;stroke-miterlimit:10;}.cls-3{fill:#ffb000;}</style></defs><title>Fast</title><path class="cls-1" d="M155.29,245.43A71.74,71.74,0,1,1,227,173.7,71.82,71.82,0,0,1,155.29,245.43Zm0-133.8a62.07,62.07,0,1,0,62.06,62.07A62.13,62.13,0,0,0,155.29,111.63Zm23.87-36.75A23.88,23.88,0,1,0,148.4,97.74v1.58h13.77V97.74A23.91,23.91,0,0,0,179.16,74.88Zm-17,19.3V83.09H148.4V94.18a20.5,20.5,0,1,1,13.77,0ZM144.9,71.25h-2.42V81.4h2.42Zm3.86,0h-2.41V81.4h2.41Zm3.87,0h-2.42V81.4h2.42Zm3.86,0h-2.41V81.4h2.41Zm3.87,0h-2.42V81.4h2.42Zm3.87,0h-2.42V81.4h2.42Zm3.86,0h-2.42V81.4h2.42ZM92.19,94.54,76.13,110.6l2.45,2.45L94.64,97ZM94,100.29,81.88,112.36l6.49,6.5,12.08-12.08Zm5.9,10.11L92,118.26l6.49,6.49,7.86-7.86Zm134.59.2L218.38,94.54,215.93,97,232,113.05Zm-5.75,1.76-12.07-12.07-6.49,6.49,12.07,12.08Zm-10.11,5.9-7.86-7.86-6.49,6.49,7.86,7.86Z"/><circle class="cls-2" cx="155.5" cy="173.5" r="59"/><path class="cls-3" d="M155.29,117.87V173.7l27.9-48.34A55.45,55.45,0,0,0,155.29,117.87Z"/></svg>