<svg id="Layer_1" data-name="Layer 1" xmlns="http://www.w3.org/2000/svg" viewBox="0 0 306 306"><defs><style>.cls-1{fill:#0db394;}.cls-2{fill:#ffb000;}</style></defs><title>Easy</title><path class="cls-1" d="M180,184l16-16s7.3-2.7,13,3c6,6,0,14,0,14l-35,35s-30,24-59,0c0,0-19-12-20-39,0,0-1-4,5-29,0,0,5-34,3-39,0,0,2-11,11-9,0,0,9,1,10,9l-1,39,4-3,61-61s9-8,15,0-1,15-1,15l-44,45,17-16s7-4,11,2c0,0,6,7,1,13s-16,17-16,17l15-14s6-4,12,2-1,14-1,14Z"/><rect class="cls-2" x="130.31" y="81.97" width="6" height="23.33" rx="3" transform="translate(-14.95 26.13) rotate(-10.6)"/><rect class="cls-2" x="154.29" y="89.77" width="6" height="19.26" rx="3" transform="translate(70.77 -65.33) rotate(30)"/><rect class="cls-2" x="143.29" y="72.33" width="6" height="36.05" rx="3" transform="translate(15.71 -21.51) rotate(8.89)"/></svg>