<svg id="Layer_1" data-name="Layer 1" xmlns="http://www.w3.org/2000/svg" viewBox="0 0 306 306"><defs><style>.cls-1{fill:#0c8971;}.cls-2{fill:#d89000;}.cls-3{fill:#ffb000;}.cls-4{fill:#0db394;}</style></defs><title>Legal</title><rect class="cls-1" x="149.05" y="70.22" width="8.34" height="6.3"/><path class="cls-2" d="M107.62,146a30,30,0,0,1-60.07,0Z"/><path class="cls-3" d="M107.62,146a30,30,0,0,1-30,30V146Z"/><path class="cls-1" d="M47.56,146.82a.78.78,0,0,1-.44-.13.79.79,0,0,1-.23-1.1l30-45.95a.81.81,0,0,1,1.1-.23.8.8,0,0,1,.24,1.1l-30,46A.8.8,0,0,1,47.56,146.82Z"/><path class="cls-1" d="M107.62,146.82a.8.8,0,0,1-.66-.36l-30-45.95a.8.8,0,0,1,.23-1.1.82.82,0,0,1,1.11.23l30,46a.79.79,0,0,1-.23,1.1A.78.78,0,0,1,107.62,146.82Z"/><path class="cls-1" d="M77.59,146.82a.79.79,0,0,1-.8-.79V100.08a.8.8,0,0,1,1.6,0v46A.79.79,0,0,1,77.59,146.82Z"/><path class="cls-4" d="M146.32,81.09a9.83,9.83,0,0,0-1-.37c-.52-.15-1.14-.32-1.82-.47l-2-.23c-.69,0-1.46,0-2.24,0a27.88,27.88,0,0,0-5,.79c-7,1.7-15,5.79-22.93,9.63s-16,7.39-22.45,8.77a43.94,43.94,0,0,1-4.43.72,31.81,31.81,0,0,1-3.46.14,15.85,15.85,0,0,1-1.93-.11,4.64,4.64,0,1,0-1.1.14,4.6,4.6,0,0,0,.84-.08,18.26,18.26,0,0,0,2.17.34,30.83,30.83,0,0,0,3.52.21,43.8,43.8,0,0,0,4.57-.3,71.19,71.19,0,0,0,11.21-2.44c4-1.18,8.23-2.69,12.4-4.22,8.31-3.07,16.62-6.26,22.71-7.08a21.41,21.41,0,0,1,4-.24c.57,0,1.06.11,1.53.14l1.19.26a4.17,4.17,0,0,0,.66.24,5.1,5.1,0,0,1,.76.36l.7.36,2.86-6.28Z"/><path class="cls-2" d="M198.8,146a30,30,0,0,0,60.07,0Z"/><path class="cls-3" d="M228.84,146v30a30,30,0,0,0,30-30Z"/><path class="cls-1" d="M258.87,146.82a.78.78,0,0,0,.44-.13.79.79,0,0,0,.23-1.1l-30-45.95a.81.81,0,0,0-1.1-.23.8.8,0,0,0-.23,1.1l30,46A.8.8,0,0,0,258.87,146.82Z"/><path class="cls-1" d="M198.8,146.82a.8.8,0,0,0,.67-.36l30-45.95a.79.79,0,0,0-.23-1.1.81.81,0,0,0-1.1.23l-30,46a.79.79,0,0,0,.23,1.1A.75.75,0,0,0,198.8,146.82Z"/><path class="cls-1" d="M228.84,146.82a.79.79,0,0,0,.79-.79V100.08a.79.79,0,0,0-.79-.8.8.8,0,0,0-.8.8v46A.79.79,0,0,0,228.84,146.82Z"/><path class="cls-4" d="M159.8,81.09a9.83,9.83,0,0,1,1-.37c.52-.15,1.14-.32,1.82-.47l2-.23c.69,0,1.46,0,2.24,0a27.64,27.64,0,0,1,5,.79c7,1.7,15,5.79,22.94,9.63s16,7.39,22.45,8.77a43.94,43.94,0,0,0,4.43.72,31.81,31.81,0,0,0,3.46.14,15.85,15.85,0,0,0,1.93-.11,4.64,4.64,0,1,1,1.1.14,4.6,4.6,0,0,1-.84-.08,18.26,18.26,0,0,1-2.17.34,30.83,30.83,0,0,1-3.52.21,43.8,43.8,0,0,1-4.57-.3,71.19,71.19,0,0,1-11.21-2.44c-4-1.18-8.23-2.69-12.41-4.22-8.3-3.07-16.62-6.26-22.7-7.08a21.41,21.41,0,0,0-4-.24c-.57,0-1.06.11-1.53.14L164,86.7a4.56,4.56,0,0,1-.66.24,5.1,5.1,0,0,0-.76.36l-.71.36-2.85-6.28Z"/><rect class="cls-4" x="147.38" y="76.52" width="11.68" height="131.45"/><rect class="cls-1" x="147.38" y="203.86" width="11.68" height="4.12"/><path class="cls-4" d="M167.3,219.68h-28v-3.94a7.76,7.76,0,0,1,7.76-7.77h12.46a7.77,7.77,0,0,1,7.77,7.77Z"/><rect class="cls-1" x="139.31" y="215.74" width="27.99" height="3.93"/><path class="cls-4" d="M127,232.47a12.79,12.79,0,0,1,12.79-12.79H166a12.79,12.79,0,0,1,12.8,12.79Z"/><path class="cls-1" d="M127,232.47a12.71,12.71,0,0,1,2.18-7.15l47.22-.25a12.69,12.69,0,0,1,2.36,7.4Z"/><path class="cls-4" d="M162.13,63.91A8.92,8.92,0,1,1,153.22,55,8.91,8.91,0,0,1,162.13,63.91Z"/><path class="cls-1" d="M147.81,98.35l-5.54-11.58a6,6,0,0,1,5.4-8.57h11.09a6,6,0,0,1,5.4,8.57l-5.54,11.58A6,6,0,0,1,147.81,98.35Z"/><path class="cls-4" d="M222.1,249.43H84.58v-.17a17.09,17.09,0,0,1,17.09-17.1H205a17.09,17.09,0,0,1,17.09,17.1Z"/><path class="cls-4" d="M157,87.56a3.76,3.76,0,1,1-3.75-3.75A3.75,3.75,0,0,1,157,87.56Z"/></svg>