<svg id="Layer_1" data-name="Layer 1" xmlns="http://www.w3.org/2000/svg" viewBox="0 0 306 306"><defs><style>.cls-1,.cls-2{fill:#fff;}.cls-1{opacity:0.36;}.cls-3{fill:none;stroke:#0db394;stroke-miterlimit:10;}.cls-4{fill:#0db394;}</style></defs><title>Reliable</title><path class="cls-1" d="M243.16,76.63S204,73.68,155.88,50.16v0h0s0,0,0,0C107.69,73.68,68.55,76.63,68.55,76.63,60,208.8,153.64,252.83,155.83,253.84v0h0v0C158.08,252.83,251.72,208.8,243.16,76.63Z"/><path class="cls-2" d="M232.81,85.56S198.31,83,155.88,62.23h0C113.4,83,78.91,85.56,78.91,85.56c-7.55,116.51,75,155.31,76.93,156.21h0C157.82,240.87,240.36,202.07,232.81,85.56Z"/><path class="cls-3" d="M226.5,91s-31.66-2.38-70.63-21.42v0h0C116.88,88.63,85.21,91,85.21,91c-6.93,107,68.85,142.58,70.63,143.4v0h0v0C157.65,233.59,233.43,198,226.5,91Z"/><polygon class="cls-4" points="199.78 123.45 190.33 114 150.13 153.77 134.24 138.12 124.79 147.58 150.02 172.57 150.52 172.07 150.63 172.18 199.78 123.45"/></svg>