<?xml version="1.0" encoding="utf-8"?>
<!-- Generator: Adobe Illustrator 22.0.0, SVG Export Plug-In . SVG Version: 6.00 Build 0)  -->
<svg version="1.1" id="Layer_1" xmlns="http://www.w3.org/2000/svg" xmlns:xlink="http://www.w3.org/1999/xlink" x="0px" y="0px"
	 viewBox="0 0 358.6 120" style="enable-background:new 0 0 358.6 120;" xml:space="preserve">
<style type="text/css">
	.st0{fill-rule:evenodd;clip-rule:evenodd;fill:#E42E0E;stroke:#E42E0E;stroke-width:0.216;stroke-miterlimit:22.9256;}
	.st1{fill-rule:evenodd;clip-rule:evenodd;fill:#FFCC00;stroke:#FFCB00;stroke-width:3;stroke-miterlimit:22.9256;}
	.st2{fill-rule:evenodd;clip-rule:evenodd;fill:#FFCB00;}
	.st3{fill-rule:evenodd;clip-rule:evenodd;fill:#FFCB00;stroke:#FFCB00;stroke-width:0.216;stroke-miterlimit:2.6131;}
	.st4{fill-rule:evenodd;clip-rule:evenodd;fill:#FFCC00;stroke:#FFCB00;stroke-width:1.9032;stroke-miterlimit:2.6131;}
	.st5{fill-rule:evenodd;clip-rule:evenodd;fill:#FFCC00;}
	.st6{fill-rule:evenodd;clip-rule:evenodd;fill:none;stroke:#FFCB00;stroke-width:3.6176;stroke-miterlimit:22.9256;}
	.st7{fill-rule:evenodd;clip-rule:evenodd;fill:#FFCC00;stroke:#FFCB00;stroke-width:3.8931;stroke-miterlimit:22.9256;}
	.st8{fill-rule:evenodd;clip-rule:evenodd;fill:#FFCB00;stroke:#FFCB00;stroke-width:0.5669;stroke-miterlimit:22.9256;}
</style>
<g>
	<polygon class="st0" points="254.6,46.2 255.6,47.9 256.6,49.5 254.6,49.5 252.7,49.5 253.7,47.9 	"/>
	<polygon class="st0" points="265.4,56.9 263.7,55.9 262,54.9 262,56.9 262,58.8 263.7,57.8 	"/>
	<polygon class="st0" points="243.8,56.9 245.5,55.9 247.1,54.9 247.1,56.9 247.1,58.8 245.5,57.8 	"/>
	<polygon class="st0" points="254.6,67.6 255.6,65.9 256.6,64.3 254.6,64.3 252.7,64.3 253.7,65.9 	"/>
	<ellipse transform="matrix(0.9731 -0.2306 0.2306 0.9731 -6.2862 60.2213)" class="st0" cx="254.5" cy="57" rx="4.9" ry="4.9"/>
</g>
<g>
	<path class="st1" d="M251.6,80.4l-19.7,25.9l15.1,0l16.3-21.7c4.2-5.6,10.5-13.5,13-19.7c2.8-6.9,3-14.3-1.9-21.4
		c-4.3-6.3-11.3-10.4-19.5-10.3c-13.2,0.1-23.8,10.8-23.7,24C231.2,67.5,238.7,78.4,251.6,80.4L251.6,80.4z M254.4,42.8
		c7.8,0,14,6.3,14,14c0,7.8-6.3,14-14,14c-7.8,0-14-6.3-14-14C240.4,49,246.7,42.8,254.4,42.8z"/>
</g>
<path class="st2" d="M13.8,78.2c0,9.7-0.1,19.4-0.1,29.1c-3.8,0-7.6,0-11.4,0C2.2,96.4,2.1,85.4,2,74.5c0.1-7,0-17.1,1.8-23.5
	c2-7.1,6.7-12.8,14.9-15.4c7.3-2.3,14.9-1.7,21.4,3.4C50.5,47,52.3,62,44.2,72.3C37.8,80.4,25.2,84.5,13.8,78.2z M33.8,47.6
	c-5.6-4.4-13.8-3.4-18.2,2.2c-4.4,5.6-3.4,13.8,2.2,18.2c5.6,4.4,13.8,3.4,18.2-2.2C40.5,60.1,39.5,52,33.8,47.6z"/>
<path class="st2" d="M46,69.2c6.4-1.1,12-7.2,12.4-15.1l-0.5-12.5L72,41.5c-0.1,5.4,0,3.7-0.2,9.5c-0.4,10.5-2.5,20.6-12.1,26.6
	C51,83,41,84,31.9,80c4.9-1.4,9.3-4.3,12.2-8.1C44.8,71,45.4,70.1,46,69.2z"/>
<ellipse transform="matrix(0.9981 -6.207211e-02 6.207211e-02 0.9981 -2.4354 10.6542)" class="st3" cx="170.3" cy="44.5" rx="10.6" ry="10.6"/>
<path class="st2" d="M57.8,41.6l14.2,0l-0.3,12.2c0.5,3.6,1.8,6.6,3.8,8.9c5.7,6.5,12.6,6.5,19.1,1.2c3-2.4,4.9-6.1,5.1-11.4
	l0.1-8.6h14c0,4,0,0.1-0.2,5.5c-0.4,10.5-2.5,20.6-12.1,26.6c-9.8,6.1-21.3,6.5-31.2,0.6c-8.7-5.2-11.6-14.1-12.2-26.1L57.8,41.6z"
	/>
<path class="st2" d="M55.2,107c5.8,0,10.6-4.8,10.6-10.6c0-5.8-4.8-10.6-10.6-10.6c-5.8,0-10.6,4.8-10.6,10.6
	C44.6,102.3,49.3,107,55.2,107z"/>
<path class="st2" d="M33.8,107c5.8,0,10.6-4.8,10.6-10.6c0-5.8-4.8-10.6-10.6-10.6c-5.8,0-10.6,4.8-10.6,10.6
	C23.2,102.2,27.9,107,33.8,107z"/>
<path class="st3" d="M338.9,38.6l-36.8-0.1l36.3-13c3-1.1,4.9-2.1,5.1-4.8l14,0c0.2,4.5-1.5,8.5-5.2,12.2
	C348.7,36.4,344.2,38.6,338.9,38.6z"/>
<path class="st3" d="M306.7,25.6l36.8,0.1l-36.3,13c-3,1.1-4.9,2.6-5.1,5.3l-14-0.2c-0.2-4.5,1.5-8.8,5.2-12.5
	C296.9,27.8,301.4,25.6,306.7,25.6z"/>
<g>
	<path class="st4" d="M289.5,47.8l12.4,0c3.3,7.7,1.8,16.8-0.6,22.5c-4.9,11.3-16.6,25.7-24.5,36.7l-15.9,0
		c8.2-11.2,22.4-27.8,27.7-40.1C290.5,62.4,290.9,54.9,289.5,47.8z"/>
	<path class="st5" d="M289.5,47.8l12.4,0c3.3,7.7,1.8,16.8-0.6,22.5c-4.9,11.3-16.6,25.7-24.5,36.7l-15.9,0
		c8.2-11.2,22.4-27.8,27.7-40.1C290.5,62.4,290.9,54.9,289.5,47.8z"/>
</g>
<g>
	<rect x="314.9" y="44.8" class="st6" width="11.9" height="61.5"/>
	<path class="st5" d="M314.9,106.2c4,0,8,0,12,0V44.8h-11.9C314.9,65.3,314.9,85.7,314.9,106.2z"/>
</g>
<g>
	<rect x="210" y="34" class="st7" width="12.5" height="72.3"/>
	<path class="st5" d="M210,106.3h12.5V34H210V106.3z"/>
</g>
<path class="st2" d="M150.3,38.3l-36.8-0.1l36.3-13c3-1.1,4.9-2.1,5.1-4.8l14,0c0.2,4.5-1.5,8.5-5.2,12.2
	C160.1,36.2,155.6,38.3,150.3,38.3z"/>
<path class="st3" d="M118.2,24.9L155,25l-36.3,13c-2.3,0.8-4,1.8-4.7,3.4h-0.4l0,0l-14,0c0.2-3.9,1.9-7.4,5.2-10.7
	C108.4,27.1,112.9,24.9,118.2,24.9L118.2,24.9z M99.6,41.5L99.6,41.5L99.6,41.5L99.6,41.5z"/>
<rect x="116.6" y="20.2" class="st2" width="23" height="3.5"/>
<path class="st8" d="M187.1,32.3l14,0v43.2c0,17.4-14.3,31.7-31.7,31.7l0,0c-17.4,0-31.7-14.3-31.7-31.7l0-34l13.9,0l0,34.8
	c0,9.8,8.1,17.1,17.9,17.1h0c9.8,0,17.7-7.3,17.7-17.1L187.1,32.3z"/>
</svg>
